<svg width="77" height="47" viewBox="0 0 77 47" fill="none" xmlns="http://www.w3.org/2000/svg">
<path d="M45.2539 21.9633H23.616V28.1521H38.2069C36.4903 35.696 31.1599 40.3262 23.9999 40.3262C21.2253 40.3409 18.4893 39.6755 16.0313 38.3884C13.5732 37.1013 11.4679 35.2315 9.89939 32.9427C8.33092 30.6539 7.34707 28.0156 7.03385 25.2587C6.72064 22.5017 7.08761 19.7101 8.10267 17.1277C9.11773 14.5454 10.75 12.251 12.8567 10.4453C14.9634 8.63955 17.4804 7.37743 20.1876 6.76927C22.8948 6.16111 25.7098 6.22543 28.3864 6.95662C31.063 7.68781 33.5197 9.0636 35.5417 10.9637L40.33 6.83034C37.6129 4.14058 34.2747 2.16195 30.6107 1.0695C26.9468 -0.0229427 23.0701 -0.195537 19.3236 0.566992C15.577 1.32952 12.0762 3.00367 9.13076 5.44132C6.18531 7.87898 3.88605 11.005 2.43638 14.5428C0.986707 18.0807 0.431319 21.9213 0.819347 25.7249C1.20737 29.5284 2.52686 33.1778 4.66106 36.35C6.79527 39.5222 9.67841 42.1196 13.0554 43.9122C16.4324 45.7049 20.1992 46.6376 24.0225 46.6279C36.3548 46.6279 45.2765 37.2093 45.2765 24.3575L45.2539 21.9633Z" fill="white"/>
<path d="M76.3577 22.2119H67.4134V13.2676H61.7216V22.2119H52.7773V27.9037H61.7216V36.848H67.4134V27.9037H76.3577V22.2119Z" fill="white"/>
</svg>
